<?xml version="1.0" encoding="UTF-8" standalone="no"?>
<!DOCTYPE svg PUBLIC "-//W3C//DTD SVG 1.1//EN" "http://www.w3.org/Graphics/SVG/1.1/DTD/svg11.dtd">
<!-- Created with Vectornator (http://vectornator.io/) -->
<svg height="100%" stroke-miterlimit="10" style="fill-rule:nonzero;clip-rule:evenodd;stroke-linecap:round;stroke-linejoin:round;" version="1.1" viewBox="0 0 100 100" width="100%" xml:space="preserve" xmlns="http://www.w3.org/2000/svg" xmlns:xlink="http://www.w3.org/1999/xlink">
<defs/>
<g id="Ebene-1">
<path d="M84.162 9.14644C82.0135 7.93026 78.8223 9.90535 77.0203 13.5497C75.2188 17.1986 75.503 21.139 77.6533 22.3525C79.8041 23.5707 82.9924 21.589 84.795 17.9493C86.5946 14.303 86.3105 10.3626 84.162 9.14644Z" fill="none" opacity="1" stroke="#000000" stroke-linecap="round" stroke-linejoin="round" stroke-width="2"/>
<path d="M95.2904 24.4093C93.9823 23.3382 91.9173 23.9736 90.6625 25.8082C90.192 26.4961 89.8962 27.2407 89.7889 27.9799C89.6102 29.212 89.9235 30.3913 90.741 31.0608C92.0491 32.1318 94.1386 31.5165 95.3934 29.682C96.6482 27.8474 96.5985 25.4804 95.2904 24.4093Z" fill="none" opacity="1" stroke="#000000" stroke-linecap="round" stroke-linejoin="round" stroke-width="2"/>
<path d="M98.0109 39.1056C97.2021 38.1365 95.5383 38.3657 94.2701 39.599C92.9983 40.8294 92.6116 42.6225 93.4166 43.5864C94.2267 44.5482 95.9321 44.3196 97.2003 43.0863C98.4711 41.8467 98.8271 40.0641 98.0109 39.1056Z" fill="none" opacity="1" stroke="#000000" stroke-linecap="round" stroke-linejoin="round" stroke-width="2"/>
<path d="M97.1716 32.2259C96.3627 31.2568 94.699 31.4859 93.4307 32.7192C92.1589 33.9497 91.7906 35.7159 92.5956 36.6798C93.4058 37.6417 95.0927 37.4398 96.361 36.2065C97.6317 34.9669 97.9877 33.1843 97.1716 32.2259Z" fill="none" opacity="1" stroke="#000000" stroke-linecap="round" stroke-linejoin="round" stroke-width="2"/>
<path d="M79.0197 29.7476C76.8986 28.0108 72.4749 25.3948 68.6235 31.0257C63.0445 39.1825 71.1391 45.6863 64.9966 54.6669C60.0873 61.8444 53.1755 57.6326 47.8253 65.9623C44.9483 70.4385 43.6988 75.4286 49.4738 80.1573C53.4094 83.3799 58.8343 80.6171 61.6924 76.4384C69.4734 65.0622 77.9376 66.6821 85.2287 55.3338C92.517 43.9895 82.985 32.9944 79.0197 29.7476Z" fill="none" opacity="1" stroke="#000000" stroke-linecap="round" stroke-linejoin="round" stroke-width="2"/>
<path d="M32.7768 13.9219C31.7062 13.3355 30.2681 14.232 29.5395 15.9155C28.8157 17.5946 29.089 19.4037 30.1618 19.9815C31.234 20.5548 32.7034 19.6901 33.4236 18.0081C34.1474 16.3289 33.8547 14.4977 32.7768 13.9219Z" fill="none" opacity="1" stroke="#000000" stroke-linecap="round" stroke-linejoin="round" stroke-width="2"/>
<path d="M26.5075 14.981C25.4369 14.3945 23.9988 15.291 23.2702 16.9745C22.5464 18.6537 22.8014 20.4895 23.8742 21.0674C24.9464 21.6407 26.4341 20.7492 27.1544 19.0671C27.8782 17.388 27.5854 15.5568 26.5075 14.981Z" fill="none" opacity="1" stroke="#000000" stroke-linecap="round" stroke-linejoin="round" stroke-width="2"/>
<path d="M40.1613 13.6924C38.8552 12.6188 36.7884 13.2563 35.5334 15.0912C34.2811 16.9222 34.3034 19.2682 35.6119 20.3438C36.9193 21.4102 39.0102 20.7986 40.2643 18.965C41.517 17.1282 41.4687 14.7588 40.1613 13.6924Z" fill="none" opacity="1" stroke="#000000" stroke-linecap="round" stroke-linejoin="round" stroke-width="2"/>
<path d="M40.0688 32.2778C36.1036 29.031 23.7989 22.1455 15.9069 32.9955C8.01214 43.8495 11.795 52.2578 4.01399 63.634C1.15586 67.8127 0.261866 74.2856 4.19868 77.5091C9.9737 82.2379 13.9969 79.5189 17.1106 75.2365C22.9058 67.2712 17.2635 61.2033 22.1727 54.0258C28.3152 45.0452 36.3253 51.7284 41.9043 43.5716C45.7558 37.9407 42.1899 34.0146 40.0688 32.2778Z" fill="none" opacity="1" stroke="#000000" stroke-linecap="round" stroke-linejoin="round" stroke-width="2"/>
<path d="M56.6829 21.0701C55.0106 19.1577 51.4765 19.9716 48.7856 22.8881C46.1024 25.8067 45.2884 29.7325 46.9631 31.6468C48.6336 33.5619 52.1443 32.7289 54.8359 29.8088C57.5233 26.8894 58.3543 22.9839 56.6829 21.0701Z" fill="none" opacity="1" stroke="#000000" stroke-linecap="round" stroke-linejoin="round" stroke-width="2"/>
<path d="M91.3706 17.0574C89.6341 15.9029 86.9817 17.2079 85.4521 19.9518C83.9301 22.7061 84.1258 25.8654 85.8569 27.0196C87.5933 28.1741 90.2327 26.9045 91.757 24.1521C93.2855 21.399 93.1082 18.2128 91.3706 17.0574Z" fill="none" opacity="1" stroke="#000000" stroke-linecap="round" stroke-linejoin="round" stroke-width="2"/>
<path d="M46.8468 22.7567C48.8215 20.3772 49.217 17.2477 47.715 15.7504C46.2106 14.2512 43.3886 14.9647 41.4064 17.3443C39.4229 19.7206 39.0339 22.8513 40.5359 24.3486C42.0362 25.8403 44.8609 25.1311 46.8468 22.7567Z" fill="none" opacity="1" stroke="#000000" stroke-linecap="round" stroke-linejoin="round" stroke-width="2"/>
</g>
</svg>
